<svg xmlns="http://www.w3.org/2000/svg" xmlns:xlink="http://www.w3.org/1999/xlink" id="Chevron_circled_right" width="612" height="792" x="0" y="0" enable-background="new 0 0 612 792" version="1.1" viewBox="0 0 612 792" xml:space="preserve"><path fill="#94979F" d="M336.6,396l-70.441-76.684c-5.998-6.059-5.998-15.881,0-21.971c5.998-6.028,15.759-6.028,21.726,0	l85.894,87.638c5.998,6.089,5.998,15.912,0,21.94l-85.894,87.638c-5.967,6.089-15.728,6.059-21.726,0	c-5.998-6.028-5.998-15.851,0-21.94L336.6,396z M306,102.24c162.241,0,293.76,131.519,293.76,293.76	c0,162.272-131.519,293.76-293.76,293.76S12.24,558.272,12.24,396C12.24,233.759,143.759,102.24,306,102.24z M306,651.632	c141.158,0,255.632-114.444,255.632-255.632S447.158,140.368,306,140.368C164.781,140.368,50.368,254.812,50.368,396	C50.337,537.188,164.781,651.632,306,651.632z"/></svg>